<svg width="69" height="17" viewBox="0 0 69 17" fill="none" xmlns="http://www.w3.org/2000/svg">
<path d="M6.31498 9.4113C6.53411 9.41536 6.79179 9.41942 7.08802 9.42348C7.38425 9.42348 7.6886 9.41333 8.00106 9.39304C8.31758 9.37275 8.62802 9.34029 8.93237 9.29565C9.23671 9.24696 9.5086 9.17594 9.74802 9.08261C9.9915 8.98928 10.1863 8.86957 10.3324 8.72348C10.4825 8.57739 10.5576 8.39478 10.5576 8.17565C10.5576 8.00116 10.4825 7.80841 10.3324 7.59739C10.1863 7.38638 9.96918 7.14493 9.68106 6.87304C9.39295 6.5971 9.03585 6.28464 8.60976 5.93565C8.18367 5.58667 7.69266 5.18696 7.13671 4.73652L7.33758 2.93478L12.828 0.542609L13.5828 2.33217L9.2915 4.16435C9.51874 4.35507 9.75005 4.55188 9.98541 4.75478C10.2208 4.95768 10.448 5.16667 10.6671 5.38174C10.8863 5.59275 11.0912 5.80985 11.2819 6.03304C11.4727 6.25217 11.639 6.47739 11.7811 6.7087C11.9231 6.93594 12.0306 7.16725 12.1037 7.40261C12.1808 7.63797 12.2153 7.87739 12.2072 8.12087C12.1869 8.65652 12.0793 9.10899 11.8845 9.47826C11.6938 9.84348 11.4443 10.1458 11.1358 10.3852C10.8315 10.6246 10.4805 10.8093 10.0828 10.9391C9.68918 11.069 9.27527 11.1643 8.84106 11.2252C8.41092 11.2861 7.97672 11.3206 7.53845 11.3287C7.10425 11.3409 6.69237 11.347 6.3028 11.347C5.88077 11.347 5.44251 11.3307 4.98802 11.2983C4.53758 11.2658 4.09729 11.2049 3.66715 11.1157C3.237 11.0304 2.82918 10.9107 2.44367 10.7565C2.05816 10.5983 1.72135 10.3954 1.43324 10.1478C1.14512 9.90029 0.915845 9.60203 0.745411 9.25304C0.574976 8.9 0.489758 8.48203 0.489758 7.99913C0.489758 7.60551 0.556715 7.22 0.690628 6.84261C0.828599 6.46522 1.01121 6.1 1.23845 5.74696L2.68106 6.8C2.62425 6.90145 2.56135 7.00493 2.49237 7.11043C2.42744 7.21594 2.36657 7.32348 2.30976 7.43304C2.257 7.54261 2.21237 7.6542 2.17585 7.76783C2.13932 7.88145 2.12106 7.99507 2.12106 8.1087C2.12106 8.26696 2.17585 8.40899 2.28541 8.53478C2.39903 8.65652 2.55324 8.76406 2.74802 8.85739C2.94686 8.94667 3.17816 9.02377 3.44193 9.0887C3.70976 9.15362 3.99787 9.20841 4.30628 9.25304C4.61874 9.29768 4.94541 9.33217 5.28628 9.35652C5.62715 9.38087 5.97005 9.39913 6.31498 9.4113ZM17.1697 11.3652C16.6625 11.3652 16.2323 11.2962 15.8793 11.1583C15.5263 11.0243 15.2381 10.8377 15.0149 10.5983C14.7918 10.3588 14.6294 10.0768 14.528 9.75217C14.4306 9.42348 14.3819 9.06841 14.3819 8.68696C14.3819 8.49217 14.386 8.25072 14.3941 7.96261C14.4022 7.67043 14.4063 7.33362 14.4063 6.95217C14.4063 6.57072 14.4042 6.15275 14.4002 5.69826C14.3961 5.23971 14.3839 4.78116 14.3636 4.32261C14.3474 3.86406 14.321 3.42377 14.2845 3.00174C14.2521 2.57971 14.2054 2.21246 14.1445 1.9L15.9645 1.34609C16.0173 1.61391 16.0599 1.93043 16.0923 2.29565C16.1289 2.65681 16.1573 3.03623 16.1776 3.43391C16.1978 3.83159 16.2121 4.2313 16.2202 4.63304C16.2323 5.03478 16.2405 5.40812 16.2445 5.75304C16.2486 6.05739 16.2425 6.37797 16.2263 6.71478C16.2141 7.04754 16.2039 7.36812 16.1958 7.67652C16.1877 7.98087 16.1897 8.25681 16.2019 8.50435C16.2181 8.75188 16.2567 8.94058 16.3176 9.07043C16.3541 9.16377 16.3987 9.23478 16.4515 9.28348C16.5083 9.33217 16.5732 9.3687 16.6463 9.39304C16.7193 9.41739 16.7984 9.43159 16.8836 9.43565C16.9729 9.43971 17.0703 9.44174 17.1758 9.44174H17.3402V11.3652H17.1697ZM17.2209 9.44174C17.5253 9.44174 17.7809 9.36058 17.9879 9.19826C18.1989 9.03188 18.3775 8.81478 18.5236 8.54696C18.6737 8.27913 18.7995 7.97478 18.9009 7.63391C19.0065 7.28899 19.1059 6.93797 19.1992 6.58087L20.8183 6.87304C20.7859 7.01507 20.7453 7.18145 20.6966 7.37217C20.652 7.55884 20.6094 7.75362 20.5688 7.95652C20.5323 8.15942 20.5018 8.35826 20.4775 8.55304C20.4531 8.74377 20.447 8.91217 20.4592 9.05826C20.4754 9.20435 20.514 9.32 20.5749 9.40522C20.6357 9.48638 20.7291 9.51681 20.8549 9.49652C21.0172 9.48435 21.1633 9.42754 21.2931 9.32609C21.427 9.22464 21.5467 9.09478 21.6523 8.93652C21.7578 8.77826 21.8511 8.59971 21.9323 8.40087C22.0134 8.20203 22.0824 7.9971 22.1392 7.78609C22.2001 7.57507 22.2488 7.36609 22.2853 7.15913C22.3259 6.95217 22.3583 6.76348 22.3827 6.59304L23.9288 6.85478C23.9247 6.97652 23.9105 7.12667 23.8862 7.30522C23.8618 7.48377 23.8395 7.67246 23.8192 7.8713C23.7989 8.06609 23.7888 8.2629 23.7888 8.46174C23.7888 8.65652 23.8111 8.83304 23.8557 8.9913C23.9004 9.14551 23.9734 9.2713 24.0749 9.3687C24.1804 9.46609 24.3265 9.51478 24.5131 9.51478C24.6267 9.51478 24.7424 9.49652 24.8601 9.46C24.9778 9.41942 25.0833 9.36464 25.1766 9.29565C25.2699 9.22261 25.345 9.13739 25.4018 9.04C25.4627 8.94261 25.4931 8.83304 25.4931 8.7113C25.4931 8.50029 25.4586 8.26899 25.3896 8.01739C25.3207 7.76174 25.2354 7.51014 25.134 7.26261C25.0366 7.01101 24.9352 6.77362 24.8296 6.55043C24.7241 6.32725 24.6349 6.13855 24.5618 5.98435L26.0714 5.13826L26.1992 5.41826C26.2601 5.54812 26.3291 5.70638 26.4062 5.89304C26.4833 6.07971 26.5624 6.29072 26.6436 6.52609C26.7288 6.75739 26.8059 6.99884 26.8749 7.25043C26.9438 7.50203 27.0007 7.75971 27.0453 8.02348C27.0899 8.28725 27.1123 8.5429 27.1123 8.79043C27.1123 9.19623 27.0554 9.56145 26.9418 9.88609C26.8323 10.2107 26.6638 10.4867 26.4366 10.7139C26.2134 10.9412 25.9314 11.1177 25.5905 11.2435C25.2537 11.3693 24.858 11.4342 24.4036 11.4383C24.1844 11.4383 23.9856 11.4159 23.807 11.3713C23.6285 11.3307 23.4662 11.2739 23.3201 11.2009C23.178 11.1278 23.0523 11.0406 22.9427 10.9391C22.8331 10.8377 22.7357 10.7281 22.6505 10.6104C22.5531 10.7362 22.4476 10.8499 22.334 10.9513C22.2244 11.0487 22.0966 11.1319 21.9505 11.2009C21.8085 11.2739 21.6482 11.3307 21.4696 11.3713C21.2911 11.4119 21.0882 11.4342 20.8609 11.4383C20.6621 11.4423 20.4815 11.4241 20.3192 11.3835C20.1609 11.347 20.0149 11.2922 19.8809 11.2191C19.747 11.1461 19.6253 11.0588 19.5157 10.9574C19.4102 10.8519 19.3108 10.7362 19.2175 10.6104C19.1323 10.7159 19.0349 10.8154 18.9253 10.9087C18.8157 10.998 18.6859 11.0771 18.5357 11.1461C18.3856 11.2151 18.2111 11.2678 18.0123 11.3043C17.8134 11.3449 17.5821 11.3652 17.3183 11.3652H17.0992V9.44174H17.2209ZM22.8088 3.69565L21.6644 4.84L20.4836 3.66522L21.6523 2.49043L22.8088 3.64696L23.9531 2.50261L25.134 3.67739L23.9653 4.85217L22.8088 3.69565ZM23.8983 1.91826L22.8149 3.00174L21.7253 1.91217L22.8088 0.828696L23.8983 1.91826ZM27.4812 13.7817C28.0534 13.6681 28.5748 13.5241 29.0456 13.3496C29.5163 13.1791 29.9282 12.9864 30.2812 12.7713C30.6383 12.5603 30.9325 12.3351 31.1638 12.0957C31.3992 11.8562 31.5656 11.6128 31.663 11.3652C31.4885 11.3652 31.3038 11.3612 31.1091 11.353C30.9143 11.349 30.754 11.3429 30.6282 11.3348C30.2264 11.3023 29.8612 11.2252 29.5325 11.1035C29.2038 10.9858 28.9198 10.8235 28.6804 10.6165C28.445 10.4055 28.2624 10.1499 28.1325 9.84957C28.0027 9.54928 27.9377 9.20435 27.9377 8.81478C27.9377 8.56725 27.9641 8.31362 28.0169 8.05391C28.0696 7.7942 28.1447 7.54058 28.2421 7.29304C28.3435 7.04551 28.4673 6.81217 28.6134 6.59304C28.7635 6.37391 28.932 6.18116 29.1186 6.01478C29.3053 5.84841 29.5102 5.71855 29.7334 5.62522C29.9606 5.52783 30.2041 5.47913 30.4638 5.47913C30.7722 5.47913 31.0563 5.53594 31.316 5.64957C31.5757 5.75913 31.8131 5.90928 32.0282 6.1C32.2473 6.29072 32.4401 6.51594 32.6064 6.77565C32.7769 7.0313 32.923 7.30725 33.0447 7.60348C33.1705 7.89565 33.272 8.2 33.3491 8.51652C33.4302 8.82899 33.487 9.13739 33.5195 9.44174H33.7812V11.3652H33.3917C33.2334 11.9617 32.9798 12.5014 32.6308 12.9843C32.2859 13.4713 31.872 13.8954 31.3891 14.2565C30.9062 14.6177 30.3685 14.9159 29.776 15.1513C29.1876 15.3867 28.5728 15.553 27.9317 15.6504L27.4812 13.7817ZM30.4638 7.4087C30.3786 7.39246 30.2812 7.4229 30.1717 7.5C30.0621 7.57304 29.9606 7.67449 29.8673 7.80435C29.774 7.93014 29.6948 8.07014 29.6299 8.22435C29.565 8.37855 29.5346 8.52667 29.5386 8.6687C29.5427 8.80667 29.5873 8.92029 29.6725 9.00957C29.7577 9.09884 29.8673 9.17391 30.0012 9.23478C30.1351 9.29159 30.2853 9.3342 30.4517 9.36261C30.6221 9.39101 30.7905 9.4113 30.9569 9.42348C31.1233 9.43565 31.2795 9.44174 31.4256 9.44174H31.803C31.7421 9.19014 31.6691 8.9487 31.5838 8.71739C31.5027 8.48609 31.4073 8.27913 31.2977 8.09652C31.1882 7.91391 31.0644 7.76174 30.9264 7.64C30.7885 7.51826 30.6343 7.44116 30.4638 7.4087ZM33.5328 9.44174H34.9937C35.1682 9.44174 35.3609 9.43362 35.5719 9.41739C35.7829 9.3971 35.9798 9.35855 36.1624 9.30174C36.349 9.24493 36.5032 9.16174 36.625 9.05217C36.7508 8.93855 36.8137 8.79043 36.8137 8.60783C36.8137 8.51043 36.7832 8.36638 36.7224 8.17565C36.6656 7.98087 36.5885 7.7658 36.4911 7.53043C36.3977 7.29101 36.2902 7.04145 36.1685 6.78174C36.0508 6.52203 35.9331 6.27449 35.8154 6.03913L37.5563 5.17478C37.6699 5.43043 37.7815 5.70232 37.8911 5.99043C38.0047 6.27855 38.1061 6.57072 38.1954 6.86696C38.2847 7.16319 38.3557 7.45942 38.4085 7.75565C38.4653 8.04783 38.4937 8.32783 38.4937 8.59565C38.4937 9.09884 38.4003 9.52696 38.2137 9.88C38.0311 10.229 37.7815 10.5151 37.465 10.7383C37.1485 10.9574 36.7771 11.1157 36.3511 11.213C35.925 11.3145 35.4685 11.3652 34.9815 11.3652H33.5328V9.44174ZM35.9858 13.3678L37.1302 12.2235L38.3111 13.3983L37.1424 14.573L35.9858 13.4165L34.8415 14.5609L33.6606 13.3861L34.8293 12.2113L35.9858 13.3678ZM34.8963 15.1452L35.9798 14.0617L37.0693 15.1513L35.9858 16.2348L34.8963 15.1452ZM43.1902 13.7817C43.7624 13.6681 44.2838 13.5241 44.7546 13.3496C45.2253 13.1791 45.6372 12.9864 45.9902 12.7713C46.3473 12.5603 46.6415 12.3351 46.8728 12.0957C47.1082 11.8562 47.2746 11.6128 47.3719 11.3652C47.1975 11.3652 47.0128 11.3612 46.818 11.353C46.6233 11.349 46.463 11.3429 46.3372 11.3348C45.9354 11.3023 45.5702 11.2252 45.2415 11.1035C44.9128 10.9858 44.6288 10.8235 44.3893 10.6165C44.154 10.4055 43.9714 10.1499 43.8415 9.84957C43.7117 9.54928 43.6467 9.20435 43.6467 8.81478C43.6467 8.56725 43.6731 8.31362 43.7259 8.05391C43.7786 7.7942 43.8537 7.54058 43.9511 7.29304C44.0525 7.04551 44.1763 6.81217 44.3224 6.59304C44.4725 6.37391 44.6409 6.18116 44.8276 6.01478C45.0143 5.84841 45.2192 5.71855 45.4424 5.62522C45.6696 5.52783 45.9131 5.47913 46.1728 5.47913C46.5462 5.47913 46.887 5.56029 47.1954 5.72261C47.5038 5.88493 47.7757 6.10203 48.0111 6.37391C48.2505 6.64174 48.4554 6.95217 48.6259 7.30522C48.7963 7.6542 48.9322 8.01942 49.0337 8.40087C49.1392 8.77826 49.2082 9.15565 49.2406 9.53304C49.2772 9.91043 49.2792 10.2594 49.2467 10.58C49.198 11.0548 49.0905 11.4991 48.9241 11.913C48.7618 12.331 48.5508 12.7145 48.2911 13.0635C48.0354 13.4165 47.7372 13.7351 47.3963 14.0191C47.0554 14.3072 46.6862 14.5588 46.2885 14.7739C45.8908 14.993 45.4667 15.1757 45.0163 15.3217C44.5699 15.4678 44.1114 15.5774 43.6406 15.6504L43.1902 13.7817ZM46.1728 7.4087C46.0876 7.39246 45.9902 7.4229 45.8806 7.5C45.7711 7.57304 45.6696 7.67449 45.5763 7.80435C45.483 7.93014 45.4038 8.07014 45.3389 8.22435C45.278 8.37855 45.2476 8.52667 45.2476 8.6687C45.2476 8.80667 45.2902 8.92232 45.3754 9.01565C45.4606 9.10493 45.5702 9.17797 45.7041 9.23478C45.838 9.29159 45.9882 9.33623 46.1546 9.3687C46.325 9.3971 46.4934 9.41739 46.6598 9.42957C46.8262 9.43768 46.9844 9.44174 47.1346 9.44174H47.5119C47.4511 9.19014 47.378 8.9487 47.2928 8.71739C47.2117 8.48609 47.1163 8.27913 47.0067 8.09652C46.8972 7.91391 46.7734 7.76174 46.6354 7.64C46.4975 7.51826 46.3433 7.44116 46.1728 7.4087ZM57.071 11.3652C56.5394 11.3652 56.0179 11.2638 55.5066 11.0609C54.9994 10.858 54.5287 10.5313 54.0945 10.0809L55.1962 8.5287C55.395 8.7113 55.5878 8.86145 55.7745 8.97913C55.9611 9.09275 56.1397 9.18203 56.3101 9.24696C56.4806 9.31188 56.6408 9.35652 56.791 9.38087C56.9452 9.40522 57.0893 9.41739 57.2232 9.41739C57.3327 9.41739 57.4504 9.4113 57.5762 9.39913C57.702 9.3829 57.8258 9.35855 57.9475 9.32609C58.0733 9.29362 58.191 9.25304 58.3006 9.20435C58.4101 9.15565 58.5055 9.09478 58.5866 9.02174C58.4324 8.64841 58.264 8.26087 58.0814 7.85913C57.9029 7.45333 57.7223 7.04754 57.5397 6.64174C57.3571 6.23188 57.1765 5.82609 56.9979 5.42435C56.8194 5.02261 56.653 4.6371 56.4988 4.26783L58.2762 3.52522L60.2849 8.37652C60.3579 8.55507 60.4249 8.7113 60.4858 8.84522C60.5466 8.97913 60.6177 9.09072 60.6988 9.18C60.784 9.26928 60.8835 9.33623 60.9971 9.38087C61.1148 9.42145 61.2649 9.44174 61.4475 9.44174H61.624V11.3652H61.4475C61.2 11.3652 60.9808 11.349 60.7901 11.3165C60.6035 11.2841 60.435 11.2374 60.2849 11.1765C60.1388 11.1197 60.0069 11.0507 59.8893 10.9696C59.7756 10.8843 59.6681 10.791 59.5666 10.6896C59.38 10.8154 59.1933 10.9209 59.0066 11.0061C58.82 11.0954 58.6252 11.1664 58.4223 11.2191C58.2194 11.2719 58.0064 11.3084 57.7832 11.3287C57.564 11.353 57.3266 11.3652 57.071 11.3652ZM66.6598 11.347C66.4163 11.347 66.1647 11.3206 65.905 11.2678C65.6453 11.2191 65.3897 11.1522 65.1381 11.067C64.8905 10.9817 64.6511 10.8843 64.4198 10.7748C64.1926 10.6612 63.9897 10.5455 63.8111 10.4278C63.6772 10.6064 63.5331 10.7565 63.3789 10.8783C63.2288 10.9959 63.0665 11.0913 62.892 11.1643C62.7215 11.2374 62.5349 11.2881 62.332 11.3165C62.1331 11.349 61.9181 11.3652 61.6868 11.3652H61.3824V9.44174H61.6868C61.9546 9.44174 62.1798 9.38696 62.3624 9.27739C62.545 9.16783 62.7013 9.02783 62.8311 8.85739C62.961 8.6829 63.0746 8.49217 63.172 8.28522C63.2734 8.0742 63.3769 7.86928 63.4824 7.67043C63.6042 7.4229 63.7401 7.17536 63.8902 6.92783C64.0444 6.68029 64.221 6.4571 64.4198 6.25826C64.6186 6.05942 64.8418 5.89913 65.0894 5.77739C65.341 5.65159 65.623 5.5887 65.9355 5.5887C66.3615 5.5887 66.7268 5.68812 67.0311 5.88696C67.3395 6.08174 67.5931 6.33942 67.792 6.66C67.9908 6.97652 68.1369 7.33768 68.2302 7.74348C68.3276 8.14522 68.3763 8.55101 68.3763 8.96087C68.3763 9.3058 68.3256 9.62435 68.2242 9.91652C68.1227 10.2087 67.9908 10.4603 67.8285 10.6713C67.6662 10.8823 67.4815 11.0467 67.2746 11.1643C67.0717 11.2861 66.8668 11.347 66.6598 11.347ZM65.8807 7.44522C65.763 7.44522 65.6534 7.49188 65.552 7.58522C65.4505 7.67449 65.3552 7.78609 65.2659 7.92C65.1766 8.05391 65.0955 8.2 65.0224 8.35826C64.9534 8.51652 64.8905 8.66261 64.8337 8.79652C64.9676 8.88174 65.1198 8.96087 65.2902 9.03391C65.4607 9.10696 65.6372 9.17188 65.8198 9.2287C66.0024 9.28145 66.187 9.32609 66.3737 9.36261C66.5604 9.39913 66.7389 9.42551 66.9094 9.44174C66.9297 9.1942 66.9175 8.95072 66.8728 8.7113C66.8282 8.47188 66.7572 8.25884 66.6598 8.07217C66.5665 7.88551 66.4528 7.73536 66.3189 7.62174C66.185 7.50406 66.0389 7.44522 65.8807 7.44522Z" fill="#212121"/>
</svg>
