<svg width="40" height="40" viewBox="0 0 40 40" fill="none" xmlns="http://www.w3.org/2000/svg">
<path d="M0 2C0 1.0482 0 0.572303 0.310777 0.276678C0.621553 -0.0189464 1.08078 0.00401711 1.99924 0.0499442C11.8799 0.544026 21.2554 4.68684 28.2842 11.7157C34.8385 18.2699 38.8833 26.8644 39.8003 36.0064C39.9793 37.7911 40.0688 38.6835 39.4733 39.3417C38.8778 39.9999 37.9185 39.9999 36 39.9999L4.00001 40C2.11439 40 1.17158 40 0.585788 39.4142C0 38.8284 0 37.8856 0 36V2Z" fill="url(#paint0_linear_246_2891)"/>
<path d="M40 2C40 1.0482 40 0.572303 39.6892 0.276678C39.3784 -0.0189464 38.9192 0.00401711 38.0008 0.0499442C28.1201 0.544026 18.7446 4.68684 11.7158 11.7157C5.16154 18.2699 1.11674 26.8644 0.199734 36.0064C0.0207138 37.7911 -0.0687981 38.6835 0.526695 39.3417C1.12219 39.9999 2.08146 39.9999 4 39.9999L36 40C37.8856 40 38.8284 40 39.4142 39.4142C40 38.8284 40 37.8856 40 36V2Z" fill="url(#paint1_linear_246_2891)"/>
<circle cx="5.091" cy="19.6363" r="2.18182" fill="white"/>
<circle cx="34.9091" cy="19.6363" r="2.18182" fill="white"/>
<path fill-rule="evenodd" clip-rule="evenodd" d="M29.9214 29.9215C32.6492 27.1937 34.1817 23.494 34.1817 19.6364H34.909C34.909 23.6869 33.2999 27.5716 30.4357 30.4358C27.5715 33.3 23.6868 34.9091 19.6363 34.9091C15.5857 34.9091 11.701 33.3 8.8368 30.4358C5.97261 27.5716 4.36353 23.6869 4.36353 19.6364H5.0908C5.0908 23.494 6.62326 27.1937 9.35106 29.9215C12.0789 32.6493 15.7786 34.1818 19.6363 34.1818C23.4939 34.1818 27.1936 32.6493 29.9214 29.9215Z" fill="white"/>
<defs>
<linearGradient id="paint0_linear_246_2891" x1="40" y1="29.8182" x2="0" y2="0" gradientUnits="userSpaceOnUse">
<stop stop-color="#D72339"/>
<stop offset="1" stop-color="#FF813B"/>
</linearGradient>
<linearGradient id="paint1_linear_246_2891" x1="-4.8" y1="15.4" x2="40" y2="29.8" gradientUnits="userSpaceOnUse">
<stop stop-color="#D72339"/>
<stop offset="1" stop-color="#F23B51"/>
</linearGradient>
</defs>
</svg>
